<?xml version="1.0" encoding="UTF-8" standalone="no"?>
<svg
   xmlns:dc="http://purl.org/dc/elements/1.1/"
   xmlns:cc="http://creativecommons.org/ns#"
   xmlns:rdf="http://www.w3.org/1999/02/22-rdf-syntax-ns#"
   xmlns:svg="http://www.w3.org/2000/svg"
   xmlns="http://www.w3.org/2000/svg"
   xmlns:sodipodi="http://sodipodi.sourceforge.net/DTD/sodipodi-0.dtd"
   xmlns:inkscape="http://www.inkscape.org/namespaces/inkscape"
   width="1792"
   height="1792"
   viewBox="0 0 1792 1792"
   id="svg2"
   version="1.1"
   inkscape:version="0.48.5 r10040"
   sodipodi:docname="clock-o.svg">
  <metadata
     id="metadata10">
    <rdf:RDF>
      <cc:Work
         rdf:about="">
        <dc:format>image/svg+xml</dc:format>
        <dc:type
           rdf:resource="http://purl.org/dc/dcmitype/StillImage" />
        <dc:title></dc:title>
      </cc:Work>
    </rdf:RDF>
  </metadata>
  <defs
     id="defs8" />
  <sodipodi:namedview
     pagecolor="#ffffff"
     bordercolor="#666666"
     borderopacity="1"
     objecttolerance="10"
     gridtolerance="10"
     guidetolerance="10"
     inkscape:pageopacity="0"
     inkscape:pageshadow="2"
     inkscape:window-width="2560"
     inkscape:window-height="1058"
     id="namedview6"
     showgrid="false"
     inkscape:zoom="0.13169643"
     inkscape:cx="-493.55932"
     inkscape:cy="896"
     inkscape:window-x="0"
     inkscape:window-y="0"
     inkscape:window-maximized="1"
     inkscape:current-layer="svg2" />
  <path
     d="M 1057.1562,1234.1075 737.79792,919.91906 q -9.97991,-9.81836 -10.08373,-22.54583 -0.10392,-12.72752 9.71443,-22.70748 L 961.849,646.5528 q 9.81838,-9.97995 22.54587,-10.0838 12.72751,-0.10386 22.70743,9.71453 l 45.6226,44.88406 q 9.98,9.81839 10.0838,22.54589 0.1039,12.72749 -9.7145,22.70743 L 895.99997,896 1146.9242,1142.8624 q 9.98,9.8182 10.0839,22.5458 0.1038,12.7275 -9.7146,22.7074 l -44.884,45.6226 q -9.8184,9.9801 -22.5459,10.0839 -12.7275,0.1038 -22.7074,-9.7146 z m -542.6708,49.6845 q 105.50234,103.7945 245.80485,139.4204 140.30246,35.6259 280.00495,-2.2849 139.7024,-37.9107 243.4968,-143.4129 103.7944,-105.5024 139.4203,-245.8049 35.6259,-140.30247 -2.2848,-280.00492 Q 1383.0167,612.00232 1277.5145,508.20794 1172.0122,404.41355 1031.7097,368.78765 891.40722,333.16176 751.70471,371.07248 612.0023,408.98324 508.20794,514.48551 404.41348,619.98774 368.78762,760.29027 q -35.62593,140.30237 2.28482,280.00503 37.9107,139.7024 143.41296,243.4967 z M 357.39129,1443.4712 Q 208.40502,1296.8966 154.82177,1099.6909 101.2384,902.48529 151.59637,704.43147 201.95426,506.37757 348.5288,357.39129 495.10335,208.40502 692.30906,154.82175 q 197.20562,-53.58333 395.25944,-3.22538 198.0539,50.35799 347.0402,196.93249 148.9863,146.57449 202.5696,343.78019 53.5832,197.20568 3.2253,395.25955 -50.358,198.0538 -196.9325,347.0401 -146.5745,148.9863 -343.7802,202.5696 -197.20565,53.5833 -395.2595,3.2253 -198.05383,-50.3579 -347.04011,-196.9324 z"
     id="path4"
     inkscape:connector-curvature="0"
     style="stroke:#000000;stroke-opacity:1;fill:#5c007c;fill-opacity:1" />
</svg>
